<?xml version="1.0" encoding="utf-8"?>
<!-- Generator: Adobe Illustrator 16.0.0, SVG Export Plug-In . SVG Version: 6.00 Build 0)  -->
<!DOCTYPE svg PUBLIC "-//W3C//DTD SVG 1.1//EN" "http://www.w3.org/Graphics/SVG/1.1/DTD/svg11.dtd">
<svg version="1.1" id="Capa_1" xmlns="http://www.w3.org/2000/svg" xmlns:xlink="http://www.w3.org/1999/xlink" x="0px" y="0px"
	 width="455px" height="300px" viewBox="0 0 455 300" enable-background="new 0 0 455 300" xml:space="preserve">
<g>
	<g>
		<polygon fill="#262E39" points="9.275,180.514 9.275,29.139 39.495,29.139 84.962,74.607 54.65,74.607 54.65,135.139 
			160.65,135.139 160.65,127.56 62.229,127.56 107.604,82.185 206.026,82.185 206.026,180.514 		"/>
		<polygon fill="#FF6600" points="92.541,74.607 47.073,29.139 77.385,29.139 122.76,74.607 		"/>
		<polygon fill="#FF6600" points="145.495,74.607 100.12,29.139 122.76,29.139 168.229,74.607 		"/>
		<polygon fill="#FF6600" points="198.54,74.607 153.073,29.139 160.65,29.139 206.026,74.607 		"/>
		<polygon fill="#FF6600" points="274.135,119.982 274.135,180.514 228.76,180.514 228.76,6.405 338.456,116.194 342.244,112.497 
			342.244,112.405 448.245,6.405 448.245,173.027 402.869,127.56 402.869,119.982 338.456,184.212 		"/>
		<polygon fill="#262E39" points="402.869,165.451 402.869,135.139 448.245,180.514 448.245,210.732 		"/>
		<polygon fill="#262E39" points="402.869,210.732 402.869,188 448.245,233.466 448.245,256.201 		"/>
		<polygon fill="#262E39" points="402.869,248.622 402.869,241.046 448.245,286.421 448.245,294 		"/>
	</g>
	<rect x="9" y="186" fill="#262E39" width="385" height="9"/>
	<rect x="9" y="239.78" fill="#FF6600" width="385.257" height="8.374"/>
	<g>
		<path fill="#262E39" d="M25.79,220.026h10.88v14.053h-3.645l-0.532-3.261c-2.009,2.635-4.756,3.952-8.242,3.952
			c-3.486,0-6.337-1.243-8.553-3.73c-2.216-2.486-3.324-5.792-3.324-9.915s1.141-7.451,3.423-9.985
			c2.281-2.534,5.391-3.802,9.328-3.802c3.369,0,6.059,0.849,8.069,2.543c2.01,1.695,3.133,3.772,3.369,6.229h-5.44
			c-0.331-1.3-1.019-2.336-2.064-3.11c-1.046-0.773-2.266-1.16-3.66-1.16c-2.328,0-4.155,0.832-5.484,2.498
			s-1.994,3.946-1.994,6.841c0,2.882,0.642,5.101,1.925,6.653c1.283,1.554,3.173,2.331,5.669,2.331c1.408,0,2.697-0.455,3.868-1.365
			c1.171-0.909,1.993-2.368,2.466-4.377H25.79V220.026z"/>
		<path fill="#262E39" d="M60.948,212.637H47.125v5.476h12.706v4.607H47.125v6.752h14.442v4.607H41.792v-26.05h19.156V212.637z"/>
		<path fill="#262E39" d="M64.421,221.055c0-4.466,1.164-7.868,3.491-10.208c2.328-2.339,5.322-3.509,8.985-3.509
			c3.662,0,6.672,1.155,9.029,3.465s3.535,5.727,3.535,10.252c0,4.418-1.158,7.809-3.473,10.171
			c-2.316,2.363-5.328,3.545-9.038,3.545c-3.533,0-6.504-1.119-8.914-3.358C65.626,229.174,64.421,225.721,64.421,221.055z
			 M69.862,221.055c0,3.024,0.673,5.298,2.02,6.822c1.347,1.523,3.054,2.286,5.121,2.286s3.754-0.786,5.06-2.357
			c1.305-1.571,1.958-3.821,1.958-6.751c0-2.931-0.646-5.181-1.94-6.752c-1.293-1.571-3.01-2.357-5.148-2.357
			s-3.852,0.783-5.139,2.349S69.862,218.112,69.862,221.055z"/>
		<path fill="#262E39" d="M107.2,208.029h5.653l-8.861,26.05h-5.174l-8.79-26.05h5.848l5.582,19.741h0.071L107.2,208.029z"/>
		<path fill="#262E39" d="M116.468,234.079h-5.742l9.286-26.05h6.291l9.18,26.05h-5.919l-1.666-5.369h-9.623L116.468,234.079z
			 M119.729,224.209h6.646l-3.243-10.314h-0.071L119.729,224.209z"/>
		<path fill="#262E39" d="M154.745,208.029h5.085v26.05h-5.444L143.74,215.49h-0.071v18.589h-5.086v-26.05h5.746l10.344,18.146
			h0.071V208.029z"/>
		<path fill="#262E39" d="M181.291,208.029h5.085v26.05h-5.444l-10.646-18.589h-0.071v18.589h-5.086v-26.05h5.746l10.344,18.146
			h0.071V208.029z"/>
		<path fill="#262E39" d="M197.116,234.079h-5.44v-26.05h5.44V234.079z"/>
		<path fill="#262E39" d="M237.448,234.079h-5.086v-17.597l0.071-4.183h-0.142l-4.874,21.779h-5.334l-4.749-21.779h-0.124
			l0.053,4.183v17.597h-5.086v-26.05h7.957l4.696,20.539h0.106l4.625-20.539h7.886V234.079z"/>
		<path fill="#262E39" d="M241.613,221.055c0-4.466,1.164-7.868,3.491-10.208c2.328-2.339,5.322-3.509,8.985-3.509
			c3.662,0,6.672,1.155,9.029,3.465s3.535,5.727,3.535,10.252c0,4.418-1.158,7.809-3.473,10.171
			c-2.316,2.363-5.328,3.545-9.038,3.545c-3.533,0-6.504-1.119-8.914-3.358C242.818,229.174,241.613,225.721,241.613,221.055z
			 M247.053,221.055c0,3.024,0.673,5.298,2.02,6.822c1.347,1.523,3.054,2.286,5.121,2.286s3.754-0.786,5.06-2.357
			c1.305-1.571,1.958-3.821,1.958-6.751c0-2.931-0.646-5.181-1.94-6.752c-1.293-1.571-3.01-2.357-5.148-2.357
			s-3.852,0.783-5.139,2.349S247.053,218.112,247.053,221.055z"/>
		<path fill="#262E39" d="M286.979,208.029h5.085v26.05h-5.444l-10.646-18.589h-0.071v18.589h-5.086v-26.05h5.746l10.344,18.146
			h0.071V208.029z"/>
		<path fill="#262E39" d="M308.545,234.079h-5.441v-21.442h-7.867v-4.607h21.193v4.607h-7.885V234.079z"/>
		<path fill="#262E39" d="M319.585,234.079h-5.741l9.285-26.05h6.291l9.18,26.05h-5.919l-1.666-5.369h-9.622L319.585,234.079z
			 M322.846,224.209h6.646l-3.243-10.314h-0.071L322.846,224.209z"/>
		<path fill="#262E39" d="M357.862,208.029h5.086v26.05h-5.444l-10.646-18.589h-0.07v18.589h-5.086v-26.05h5.746l10.345,18.146h0.07
			V208.029z M345.83,205.406c0.591-2.93,2.008-4.395,4.253-4.395c0.213,0,0.452,0.026,0.718,0.08
			c0.266,0.053,0.83,0.216,1.692,0.487c0.638,0.225,1.154,0.404,1.551,0.54c0.396,0.137,0.747,0.204,1.054,0.204
			c0.887,0,1.453-0.484,1.701-1.453h2.357c-0.591,2.906-1.932,4.359-4.022,4.359c-0.213,0-0.49-0.026-0.833-0.08
			c-0.343-0.053-0.945-0.215-1.808-0.487c-0.638-0.2-1.158-0.375-1.56-0.522s-0.756-0.222-1.063-0.222
			c-0.897,0-1.471,0.496-1.719,1.488H345.83z"/>
		<path fill="#262E39" d="M371.437,234.079h-5.741l9.285-26.05h6.291l9.18,26.05h-5.919l-1.666-5.369h-9.622L371.437,234.079z
			 M374.697,224.209h6.646l-3.243-10.314h-0.071L374.697,224.209z"/>
	</g>
</g>
</svg>
